G75*
G70*
%OFA0B0*%
%FSLAX24Y24*%
%IPPOS*%
%LPD*%
%AMOC8*
5,1,8,0,0,1.08239X$1,22.5*
%
%ADD10C,0.0000*%
%ADD11C,0.0250*%
%ADD12R,0.0356X0.0749*%
%ADD13R,0.0474X0.0513*%
%ADD14R,0.0513X0.0474*%
%ADD15C,0.0907*%
%ADD16R,0.1064X0.0552*%
%ADD17R,0.0552X0.0552*%
%ADD18C,0.0356*%
%ADD19C,0.0087*%
%ADD20C,0.0107*%
D10*
X001500Y000500D02*
X010500Y000500D01*
X010560Y000502D01*
X010621Y000507D01*
X010680Y000516D01*
X010739Y000529D01*
X010798Y000545D01*
X010855Y000565D01*
X010910Y000588D01*
X010965Y000615D01*
X011017Y000644D01*
X011068Y000677D01*
X011117Y000713D01*
X011163Y000751D01*
X011207Y000793D01*
X011249Y000837D01*
X011287Y000883D01*
X011323Y000932D01*
X011356Y000983D01*
X011385Y001035D01*
X011412Y001090D01*
X011435Y001145D01*
X011455Y001202D01*
X011471Y001261D01*
X011484Y001320D01*
X011493Y001379D01*
X011498Y001440D01*
X011500Y001500D01*
X011500Y009500D01*
X011498Y009560D01*
X011493Y009621D01*
X011484Y009680D01*
X011471Y009739D01*
X011455Y009798D01*
X011435Y009855D01*
X011412Y009910D01*
X011385Y009965D01*
X011356Y010017D01*
X011323Y010068D01*
X011287Y010117D01*
X011249Y010163D01*
X011207Y010207D01*
X011163Y010249D01*
X011117Y010287D01*
X011068Y010323D01*
X011017Y010356D01*
X010965Y010385D01*
X010910Y010412D01*
X010855Y010435D01*
X010798Y010455D01*
X010739Y010471D01*
X010680Y010484D01*
X010621Y010493D01*
X010560Y010498D01*
X010500Y010500D01*
X001500Y010500D01*
X001440Y010498D01*
X001379Y010493D01*
X001320Y010484D01*
X001261Y010471D01*
X001202Y010455D01*
X001145Y010435D01*
X001090Y010412D01*
X001035Y010385D01*
X000983Y010356D01*
X000932Y010323D01*
X000883Y010287D01*
X000837Y010249D01*
X000793Y010207D01*
X000751Y010163D01*
X000713Y010117D01*
X000677Y010068D01*
X000644Y010017D01*
X000615Y009965D01*
X000588Y009910D01*
X000565Y009855D01*
X000545Y009798D01*
X000529Y009739D01*
X000516Y009680D01*
X000507Y009621D01*
X000502Y009560D01*
X000500Y009500D01*
X000500Y001500D01*
X000502Y001440D01*
X000507Y001379D01*
X000516Y001320D01*
X000529Y001261D01*
X000545Y001202D01*
X000565Y001145D01*
X000588Y001090D01*
X000615Y001035D01*
X000644Y000983D01*
X000677Y000932D01*
X000713Y000883D01*
X000751Y000837D01*
X000793Y000793D01*
X000837Y000751D01*
X000883Y000713D01*
X000932Y000677D01*
X000983Y000644D01*
X001035Y000615D01*
X001090Y000588D01*
X001145Y000565D01*
X001202Y000545D01*
X001261Y000529D01*
X001320Y000516D01*
X001379Y000507D01*
X001440Y000502D01*
X001500Y000500D01*
X001237Y007290D02*
X001239Y007313D01*
X001245Y007336D01*
X001255Y007357D01*
X001268Y007377D01*
X001284Y007394D01*
X001303Y007408D01*
X001324Y007418D01*
X001346Y007425D01*
X001369Y007428D01*
X001393Y007427D01*
X001415Y007422D01*
X001437Y007413D01*
X001457Y007401D01*
X001475Y007385D01*
X001489Y007367D01*
X001501Y007347D01*
X001509Y007325D01*
X001513Y007302D01*
X001513Y007278D01*
X001509Y007255D01*
X001501Y007233D01*
X001489Y007213D01*
X001475Y007195D01*
X001457Y007179D01*
X001437Y007167D01*
X001415Y007158D01*
X001393Y007153D01*
X001369Y007152D01*
X001346Y007155D01*
X001324Y007162D01*
X001303Y007172D01*
X001284Y007186D01*
X001268Y007203D01*
X001255Y007223D01*
X001245Y007244D01*
X001239Y007267D01*
X001237Y007290D01*
X001237Y007960D02*
X001239Y007983D01*
X001245Y008006D01*
X001255Y008027D01*
X001268Y008047D01*
X001284Y008064D01*
X001303Y008078D01*
X001324Y008088D01*
X001346Y008095D01*
X001369Y008098D01*
X001393Y008097D01*
X001415Y008092D01*
X001437Y008083D01*
X001457Y008071D01*
X001475Y008055D01*
X001489Y008037D01*
X001501Y008017D01*
X001509Y007995D01*
X001513Y007972D01*
X001513Y007948D01*
X001509Y007925D01*
X001501Y007903D01*
X001489Y007883D01*
X001475Y007865D01*
X001457Y007849D01*
X001437Y007837D01*
X001415Y007828D01*
X001393Y007823D01*
X001369Y007822D01*
X001346Y007825D01*
X001324Y007832D01*
X001303Y007842D01*
X001284Y007856D01*
X001268Y007873D01*
X001255Y007893D01*
X001245Y007914D01*
X001239Y007937D01*
X001237Y007960D01*
D11*
X005330Y006479D02*
X005704Y006105D01*
X005926Y006327D02*
X005552Y006701D01*
X005775Y006924D02*
X006149Y006550D01*
X006372Y006773D02*
X005998Y007147D01*
X006220Y007369D02*
X006594Y006995D01*
X006817Y007218D02*
X006443Y007592D01*
X006665Y007814D02*
X007039Y007440D01*
X007262Y007663D02*
X006888Y008037D01*
X007553Y007663D02*
X007927Y008037D01*
X008153Y007811D02*
X007779Y007437D01*
X007998Y007218D02*
X008372Y007592D01*
X008598Y007365D02*
X008224Y006991D01*
X008444Y006772D02*
X008818Y007146D01*
X009037Y006927D02*
X008663Y006553D01*
X008889Y006327D02*
X009263Y006701D01*
X009489Y006474D02*
X009115Y006100D01*
X009114Y005811D02*
X009488Y005437D01*
X009266Y005214D02*
X008892Y005588D01*
X008669Y005366D02*
X009043Y004992D01*
X008820Y004769D02*
X008446Y005143D01*
X008224Y004920D02*
X008598Y004546D01*
X008375Y004324D02*
X008001Y004698D01*
X007778Y004475D02*
X008152Y004101D01*
X007934Y003880D02*
X007560Y004254D01*
X007258Y004246D02*
X006884Y003872D01*
X006662Y004099D02*
X007036Y004473D01*
X006809Y004699D02*
X006435Y004325D01*
X006216Y004545D02*
X006590Y004919D01*
X006371Y005138D02*
X005997Y004764D01*
X005771Y004990D02*
X006145Y005364D01*
X005926Y005583D02*
X005552Y005209D01*
X005325Y005436D02*
X005699Y005810D01*
D12*
G36*
X005666Y007648D02*
X005414Y007396D01*
X004886Y007924D01*
X005138Y008176D01*
X005666Y007648D01*
G37*
G36*
X006000Y007982D02*
X005748Y007730D01*
X005220Y008258D01*
X005472Y008510D01*
X006000Y007982D01*
G37*
G36*
X006334Y008316D02*
X006082Y008064D01*
X005554Y008592D01*
X005806Y008844D01*
X006334Y008316D01*
G37*
D13*
X004125Y005835D03*
X004125Y005165D03*
X002625Y005415D03*
X002625Y006085D03*
X003125Y007540D03*
X003125Y008210D03*
X002500Y003460D03*
X002500Y002790D03*
X001750Y002790D03*
X001750Y003460D03*
D14*
G36*
X009291Y003206D02*
X008930Y002845D01*
X008595Y003180D01*
X008956Y003541D01*
X009291Y003206D01*
G37*
G36*
X009765Y003680D02*
X009404Y003319D01*
X009069Y003654D01*
X009430Y004015D01*
X009765Y003680D01*
G37*
D15*
X010500Y003500D03*
X010500Y002500D03*
X010500Y001500D03*
X009500Y001500D03*
X008500Y001500D03*
X007500Y001500D03*
X006500Y001500D03*
X005500Y001500D03*
X004500Y001500D03*
X003500Y001500D03*
X002500Y001500D03*
X001500Y001500D03*
X001500Y009500D03*
X002500Y009500D03*
X003500Y009500D03*
X004500Y009500D03*
X005500Y009500D03*
X006500Y009500D03*
X007500Y009500D03*
X008500Y009500D03*
X009500Y009500D03*
X010500Y009500D03*
X010500Y008500D03*
X010500Y007500D03*
X010500Y006500D03*
X010500Y005500D03*
X010500Y004500D03*
D16*
X003625Y004150D03*
X003625Y002850D03*
D17*
X001500Y005212D03*
X001500Y006038D03*
D18*
X001375Y007290D03*
X001375Y007960D03*
D19*
X001142Y008357D02*
X001142Y008705D01*
X001608Y008705D01*
X001608Y008357D01*
X001142Y008357D01*
X001142Y008443D02*
X001608Y008443D01*
X001608Y008529D02*
X001142Y008529D01*
X001142Y008615D02*
X001608Y008615D01*
X001608Y008701D02*
X001142Y008701D01*
X001142Y006893D02*
X001142Y006545D01*
X001142Y006893D02*
X001608Y006893D01*
X001608Y006545D01*
X001142Y006545D01*
X001142Y006631D02*
X001608Y006631D01*
X001608Y006717D02*
X001142Y006717D01*
X001142Y006803D02*
X001608Y006803D01*
X001608Y006889D02*
X001142Y006889D01*
D20*
X001725Y006753D02*
X001725Y007179D01*
X002211Y007179D01*
X002211Y006753D01*
X001725Y006753D01*
X001725Y006859D02*
X002211Y006859D01*
X002211Y006965D02*
X001725Y006965D01*
X001725Y007071D02*
X002211Y007071D01*
X002211Y007177D02*
X001725Y007177D01*
X001725Y008071D02*
X001725Y008497D01*
X002211Y008497D01*
X002211Y008071D01*
X001725Y008071D01*
X001725Y008177D02*
X002211Y008177D01*
X002211Y008283D02*
X001725Y008283D01*
X001725Y008389D02*
X002211Y008389D01*
X002211Y008495D02*
X001725Y008495D01*
M02*
