%
M48
M72
T01C0.0160
T02C0.0276
T03C0.0551
%
T01
X2125Y2250
X4500Y4000
X4750Y5000
X6125Y6000
X6500Y5500
X7000Y6500
X7500Y7000
X8000Y6500
X7500Y6000
X8000Y5500
X8500Y6000
X9125Y4500
X8625Y3625
X7500Y3000
X7000Y2500
X7000Y3500
X5000Y3000
X2500Y4500
X1500Y4500
X3000Y6500
X4000Y7000
X2500Y7500
X2500Y8500
X5855Y7500
X6295Y7950
X9000Y8125
X9250Y8750
X9000Y2500
X9500Y2500
T02
X1375Y7290
X1375Y7960
T03
X10500Y1500
X10500Y9500
X1500Y9500
X1500Y1500
X2500Y1500
X3500Y1500
X4500Y1500
X5500Y1500
X6500Y1500
X7500Y1500
X8500Y1500
X9500Y1500
X10500Y2500
X10500Y3500
X10500Y4500
X10500Y5500
X10500Y6500
X10500Y7500
X10500Y8500
X9500Y9500
X8500Y9500
X7500Y9500
X6500Y9500
X5500Y9500
X4500Y9500
X3500Y9500
X2500Y9500
M30
