G75*
G70*
%OFA0B0*%
%FSLAX24Y24*%
%IPPOS*%
%LPD*%
%AMOC8*
5,1,8,0,0,1.08239X$1,22.5*
%
%ADD10C,0.0000*%
D10*
X001500Y000500D02*
X010500Y000500D01*
X010560Y000502D01*
X010621Y000507D01*
X010680Y000516D01*
X010739Y000529D01*
X010798Y000545D01*
X010855Y000565D01*
X010910Y000588D01*
X010965Y000615D01*
X011017Y000644D01*
X011068Y000677D01*
X011117Y000713D01*
X011163Y000751D01*
X011207Y000793D01*
X011249Y000837D01*
X011287Y000883D01*
X011323Y000932D01*
X011356Y000983D01*
X011385Y001035D01*
X011412Y001090D01*
X011435Y001145D01*
X011455Y001202D01*
X011471Y001261D01*
X011484Y001320D01*
X011493Y001379D01*
X011498Y001440D01*
X011500Y001500D01*
X011500Y009500D01*
X011498Y009560D01*
X011493Y009621D01*
X011484Y009680D01*
X011471Y009739D01*
X011455Y009798D01*
X011435Y009855D01*
X011412Y009910D01*
X011385Y009965D01*
X011356Y010017D01*
X011323Y010068D01*
X011287Y010117D01*
X011249Y010163D01*
X011207Y010207D01*
X011163Y010249D01*
X011117Y010287D01*
X011068Y010323D01*
X011017Y010356D01*
X010965Y010385D01*
X010910Y010412D01*
X010855Y010435D01*
X010798Y010455D01*
X010739Y010471D01*
X010680Y010484D01*
X010621Y010493D01*
X010560Y010498D01*
X010500Y010500D01*
X001500Y010500D01*
X001440Y010498D01*
X001379Y010493D01*
X001320Y010484D01*
X001261Y010471D01*
X001202Y010455D01*
X001145Y010435D01*
X001090Y010412D01*
X001035Y010385D01*
X000983Y010356D01*
X000932Y010323D01*
X000883Y010287D01*
X000837Y010249D01*
X000793Y010207D01*
X000751Y010163D01*
X000713Y010117D01*
X000677Y010068D01*
X000644Y010017D01*
X000615Y009965D01*
X000588Y009910D01*
X000565Y009855D01*
X000545Y009798D01*
X000529Y009739D01*
X000516Y009680D01*
X000507Y009621D01*
X000502Y009560D01*
X000500Y009500D01*
X000500Y001500D01*
X000502Y001440D01*
X000507Y001379D01*
X000516Y001320D01*
X000529Y001261D01*
X000545Y001202D01*
X000565Y001145D01*
X000588Y001090D01*
X000615Y001035D01*
X000644Y000983D01*
X000677Y000932D01*
X000713Y000883D01*
X000751Y000837D01*
X000793Y000793D01*
X000837Y000751D01*
X000883Y000713D01*
X000932Y000677D01*
X000983Y000644D01*
X001035Y000615D01*
X001090Y000588D01*
X001145Y000565D01*
X001202Y000545D01*
X001261Y000529D01*
X001320Y000516D01*
X001379Y000507D01*
X001440Y000502D01*
X001500Y000500D01*
X001237Y007290D02*
X001239Y007313D01*
X001245Y007336D01*
X001255Y007357D01*
X001268Y007377D01*
X001284Y007394D01*
X001303Y007408D01*
X001324Y007418D01*
X001346Y007425D01*
X001369Y007428D01*
X001393Y007427D01*
X001415Y007422D01*
X001437Y007413D01*
X001457Y007401D01*
X001475Y007385D01*
X001489Y007367D01*
X001501Y007347D01*
X001509Y007325D01*
X001513Y007302D01*
X001513Y007278D01*
X001509Y007255D01*
X001501Y007233D01*
X001489Y007213D01*
X001475Y007195D01*
X001457Y007179D01*
X001437Y007167D01*
X001415Y007158D01*
X001393Y007153D01*
X001369Y007152D01*
X001346Y007155D01*
X001324Y007162D01*
X001303Y007172D01*
X001284Y007186D01*
X001268Y007203D01*
X001255Y007223D01*
X001245Y007244D01*
X001239Y007267D01*
X001237Y007290D01*
X001237Y007960D02*
X001239Y007983D01*
X001245Y008006D01*
X001255Y008027D01*
X001268Y008047D01*
X001284Y008064D01*
X001303Y008078D01*
X001324Y008088D01*
X001346Y008095D01*
X001369Y008098D01*
X001393Y008097D01*
X001415Y008092D01*
X001437Y008083D01*
X001457Y008071D01*
X001475Y008055D01*
X001489Y008037D01*
X001501Y008017D01*
X001509Y007995D01*
X001513Y007972D01*
X001513Y007948D01*
X001509Y007925D01*
X001501Y007903D01*
X001489Y007883D01*
X001475Y007865D01*
X001457Y007849D01*
X001437Y007837D01*
X001415Y007828D01*
X001393Y007823D01*
X001369Y007822D01*
X001346Y007825D01*
X001324Y007832D01*
X001303Y007842D01*
X001284Y007856D01*
X001268Y007873D01*
X001255Y007893D01*
X001245Y007914D01*
X001239Y007937D01*
X001237Y007960D01*
M02*
